<?xml version="1.0" standalone="no"?>
<!DOCTYPE svg PUBLIC "-//W3C//DTD SVG 20010904//EN"
 "http://www.w3.org/TR/2001/REC-SVG-20010904/DTD/svg10.dtd">
<svg version="1.0" xmlns="http://www.w3.org/2000/svg"
 width="360.000000pt" height="319.000000pt" viewBox="0 0 360.000000 319.000000"
 preserveAspectRatio="xMidYMid meet">

<g transform="translate(0.000000,319.000000) scale(0.100000,-0.100000)"
fill="#fff" stroke="none">
<path d="M2585 3180 c-115 -15 -249 -72 -337 -143 -41 -33 -100 -107 -136
-172 l-23 -40 37 45 c21 25 68 75 104 111 59 58 82 72 181 114 69 29 158 57
224 70 92 19 102 23 60 23 -27 0 -77 -4 -110 -8z"/>
<path d="M2789 3000 c-3 -8 -7 -55 -8 -105 -2 -104 -10 -175 -20 -175 -4 0
-18 -22 -31 -49 -24 -53 -24 -75 4 -163 l15 -48 -212 -1 c-208 -1 -210 -1
-131 -14 131 -20 259 -68 360 -134 l30 -20 38 25 c88 60 221 108 361 130 78
12 74 12 -137 13 -121 1 -218 5 -218 10 0 5 9 39 21 77 l21 67 -23 49 c-13 27
-29 52 -36 56 -8 5 -15 54 -20 152 -4 80 -11 138 -14 130z"/>
<path d="M2308 2942 c-78 -80 -170 -224 -287 -449 -21 -42 -3 -24 30 30 60 95
119 145 119 99 0 -10 -11 -52 -25 -92 -14 -41 -23 -79 -21 -85 2 -5 5 -4 5 3
1 20 179 432 212 491 17 29 29 55 27 57 -2 2 -29 -22 -60 -54z"/>
<path d="M655 2641 c-16 -10 -41 -31 -55 -47 -16 -19 -18 -23 -5 -12 56 47
162 62 230 34 19 -8 52 -27 72 -42 l38 -28 -40 43 c-22 24 -54 50 -72 57 -47
20 -132 18 -168 -5z"/>
<path d="M693 2595 c-34 -15 -128 -104 -118 -113 2 -3 15 6 29 20 41 45 85 62
161 62 58 0 79 -4 123 -29 55 -30 79 -51 69 -62 -4 -3 -30 -6 -59 -6 -39 0
-66 7 -102 26 -61 34 -91 34 -139 1 -42 -28 -44 -40 -6 -26 25 10 37 7 128
-26 49 -18 58 -19 94 -6 91 32 189 5 211 -59 8 -22 6 -33 -13 -58 -30 -40 -19
-50 13 -13 69 78 33 162 -75 179 -22 3 -60 24 -95 51 -95 75 -151 90 -221 59z"/>
<path d="M425 2550 c-12 -4 -27 -15 -34 -24 -12 -14 -10 -14 19 0 30 16 78 15
128 -1 35 -12 26 12 -9 24 -37 13 -75 13 -104 1z"/>
<path d="M398 2504 c-16 -8 -28 -11 -28 -7 0 13 -49 -71 -50 -85 0 -7 12 2 28
18 20 24 38 33 72 36 l45 6 -50 -30 c-58 -34 -75 -64 -75 -127 0 -46 -7 -54
-28 -33 -19 19 -38 -36 -25 -73 11 -27 9 -31 -38 -70 -55 -46 -89 -102 -89
-147 0 -15 15 -54 34 -85 72 -119 75 -132 51 -190 -8 -20 -15 -54 -15 -76 0
-37 45 -180 60 -191 13 -9 48 -85 64 -139 22 -75 20 -124 -9 -225 -15 -53 -25
-112 -25 -154 -1 -39 -7 -77 -15 -92 -8 -14 -14 -29 -14 -35 0 -5 5 0 13 13 8
15 42 35 96 58 46 18 116 52 156 75 40 23 76 41 80 41 5 -1 16 -31 26 -68 l19
-66 -43 -57 c-23 -31 -81 -96 -128 -146 -60 -63 -73 -81 -45 -61 68 49 128 98
183 150 29 27 54 47 56 45 13 -14 67 -153 63 -162 -11 -28 -127 -180 -210
-277 l-91 -105 89 85 c49 47 123 125 163 173 l75 88 18 -31 c11 -17 30 -58 44
-91 l24 -61 -38 -101 c-22 -56 -55 -138 -75 -181 -20 -44 -35 -81 -33 -83 5
-5 101 170 137 251 17 38 32 67 35 65 2 -3 20 -45 39 -94 19 -50 35 -85 36
-79 0 18 -76 273 -105 349 -15 39 -54 128 -87 198 -81 175 -110 288 -111 442
-1 110 1 125 27 185 41 97 41 100 3 41 -31 -49 -55 -114 -72 -193 -7 -38 -29
-35 -61 8 -41 54 -55 119 -42 204 11 71 11 71 -21 115 -36 50 -61 114 -61 155
0 15 9 48 20 74 12 25 23 67 26 94 5 41 1 56 -30 114 -31 57 -47 118 -31 118
2 0 28 -9 57 -21 29 -11 98 -27 153 -34 55 -7 127 -21 161 -30 l61 -17 44 25
c68 40 104 85 117 145 19 84 16 133 -8 139 -13 4 -20 14 -21 32 0 15 -3 20 -6
11 -15 -41 -51 -74 -111 -104 -93 -46 -134 -58 -232 -67 l-85 -7 105 2 c97 3
113 6 204 44 96 39 140 45 100 14 -15 -11 -15 -13 -2 -9 31 11 27 -6 -10 -36
-25 -20 -30 -27 -15 -23 38 12 34 -11 -7 -46 l-39 -34 32 3 32 4 -30 -25 c-42
-36 -86 -42 -169 -22 -39 9 -91 16 -116 16 -46 0 -145 25 -215 54 -46 19 -115
83 -115 105 0 12 3 12 12 3 17 -17 33 -15 19 2 -23 28 7 26 72 -5 36 -16 82
-32 103 -34 l39 -5 -45 13 c-25 8 -71 26 -102 40 -65 30 -77 54 -58 111 25 76
96 117 175 102 19 -4 35 -4 35 -1 0 21 -27 49 -63 66 -50 22 -73 23 -109 3z
m-108 -370 c-58 -67 -65 -121 -24 -203 32 -64 42 -60 19 9 -20 60 -15 117 16
166 24 39 39 46 64 28 18 -13 18 -14 1 -33 -33 -36 -32 -98 3 -186 34 -89 38
-141 16 -205 -8 -23 -15 -60 -15 -82 0 -35 8 -47 70 -113 l70 -74 0 -75 c0
-88 10 -120 52 -163 18 -18 30 -35 27 -37 -9 -9 -122 -56 -134 -56 -10 0 -9
12 1 58 8 31 15 91 16 133 1 65 -3 83 -26 125 -14 27 -49 73 -76 101 -47 49
-50 56 -50 105 -1 51 -1 52 -15 28 -35 -62 -10 -146 73 -246 65 -77 79 -130
62 -236 -11 -75 -52 -204 -69 -221 -24 -24 -22 46 3 145 35 137 28 176 -55
337 l-63 120 14 78 c21 113 17 140 -29 227 -62 117 -55 183 27 269 46 47 64
49 22 1z m141 -160 c47 -102 53 -144 29 -206 -11 -29 -23 -73 -26 -98 -5 -41
-1 -51 36 -107 45 -70 65 -113 50 -113 -10 0 -58 67 -85 120 -15 28 -17 49
-11 130 6 89 4 101 -24 180 -29 84 -36 124 -24 154 9 25 24 9 55 -60z m189
-859 c-17 -20 -167 -95 -191 -95 -18 0 -19 2 -4 30 9 17 23 30 33 31 9 0 46
11 82 24 81 29 97 31 80 10z m-20 -79 c0 -16 -189 -136 -238 -151 -23 -7 -23
-7 5 44 19 35 36 53 53 57 14 3 57 16 95 29 73 25 85 27 85 21z"/>
<path d="M321 1775 c0 -46 2 -56 10 -42 7 11 7 32 1 60 l-10 42 -1 -60z"/>
<path d="M645 2437 l-30 -14 47 -5 c26 -3 75 -20 110 -38 l62 -33 83 29 c99
34 115 29 124 -37 l5 -44 13 30 c16 38 7 73 -24 87 -20 9 -35 7 -81 -11 -78
-29 -116 -27 -170 10 -52 36 -97 44 -139 26z"/>
<path d="M443 2390 c-37 -15 -45 -43 -29 -102 l14 -53 1 56 c1 59 13 79 61 98
l25 10 -25 0 c-14 0 -35 -4 -47 -9z"/>
<path d="M714 2344 c106 -52 144 -55 198 -18 21 15 37 28 35 30 -1 2 -21 -3
-42 -11 -61 -22 -107 -18 -190 15 -105 42 -106 36 -1 -16z"/>
<path d="M2296 2380 c-15 -37 -225 -674 -223 -677 3 -2 99 249 186 485 9 23
19 42 23 42 5 0 9 -118 10 -262 1 -286 14 -232 18 77 1 88 5 171 9 184 5 20
25 -25 90 -207 46 -128 86 -231 87 -229 2 2 -41 138 -95 303 -56 171 -101 293
-105 284z"/>
<path d="M3168 2042 c-64 -191 -115 -348 -114 -350 2 -1 50 121 106 273 57
151 104 274 106 272 2 -2 4 -106 4 -233 1 -126 5 -245 10 -264 5 -24 8 17 9
125 1 201 12 388 21 378 4 -4 45 -110 90 -236 46 -125 85 -226 86 -224 3 3
-192 596 -198 602 -2 2 -56 -153 -120 -343z"/>
<path d="M988 2373 c7 -3 16 -2 19 1 4 3 -2 6 -13 5 -11 0 -14 -3 -6 -6z"/>
<path d="M489 2347 c-30 -20 -34 -28 -36 -72 -1 -40 0 -44 6 -20 12 48 30 75
64 95 19 12 25 20 16 20 -9 0 -31 -10 -50 -23z"/>
<path d="M1692 2278 c-39 -46 -123 -135 -189 -198 -200 -196 -312 -280 -370
-280 -41 0 -123 -31 -160 -60 l-27 -21 -12 33 c-14 36 -18 91 -8 101 8 7 64
-60 64 -76 0 -6 2 -8 5 -5 3 3 -6 27 -20 53 -25 47 -34 105 -16 105 5 0 12
-11 15 -25 3 -13 16 -29 27 -35 11 -7 27 -26 34 -43 12 -26 14 -28 15 -11 0
12 -14 48 -30 79 -22 41 -30 71 -30 106 0 49 0 49 -23 34 -17 -10 -26 -32 -36
-76 -21 -101 -49 -165 -88 -200 -33 -28 -41 -31 -87 -26 -28 2 -60 8 -71 11
-13 5 -11 2 5 -8 14 -8 46 -23 72 -31 57 -20 90 -8 116 40 10 17 18 32 20 35
7 10 32 -34 32 -55 0 -12 -12 -32 -26 -46 -40 -36 -120 -162 -143 -225 -39
-102 -24 -314 33 -480 13 -38 55 -141 94 -229 95 -218 132 -346 155 -545 3
-19 3 6 1 57 -6 122 -38 243 -122 459 -117 299 -160 465 -146 563 22 161 67
270 144 355 45 48 134 116 154 116 4 0 -13 -29 -38 -63 -55 -77 -110 -190
-131 -272 -9 -33 -18 -112 -20 -175 l-4 -115 15 95 c26 165 27 167 47 65 34
-168 111 -323 268 -531 86 -114 133 -205 172 -330 31 -97 57 -230 57 -290 0
-23 5 -46 11 -50 8 -4 9 5 6 32 -3 22 -9 71 -12 109 -11 123 -51 266 -103 370
l-24 49 17 94 c14 74 16 112 9 185 -16 176 -12 213 30 317 62 152 92 210 161
316 l66 99 -94 -100 c-52 -55 -106 -106 -120 -114 -23 -12 -27 -21 -27 -60 0
-52 -20 -176 -44 -266 -8 -33 -27 -116 -41 -185 -14 -69 -28 -131 -31 -139 -7
-22 -140 165 -194 274 -27 55 -57 129 -66 165 -24 95 -22 222 5 307 37 116 99
182 278 295 73 46 238 201 330 310 87 103 176 218 170 218 -3 0 -36 -37 -75
-82z m-382 -1458 c0 -115 -9 -148 -30 -110 -12 23 -9 134 7 211 11 58 23 7 23
-101z"/>
<path d="M1860 2200 c-95 -98 -304 -338 -340 -391 -21 -30 -46 -73 -55 -95
-29 -66 -76 -206 -72 -211 3 -2 15 8 27 24 12 15 138 155 281 310 l260 283
-22 29 c-11 16 -24 44 -28 62 l-8 34 -43 -45z"/>
<path d="M1904 2038 l-19 -23 23 19 c12 11 22 21 22 23 0 8 -8 2 -26 -19z"/>
<path d="M1864 1988 l-19 -23 23 19 c21 18 27 26 19 26 -2 0 -12 -10 -23 -22z"/>
<path d="M186 1698 c-55 -112 -56 -133 -11 -234 35 -79 41 -147 20 -220 -15
-51 -27 -68 -95 -134 -87 -83 -104 -114 -94 -175 10 -63 23 -77 24 -24 0 54
34 112 105 179 96 91 116 184 69 331 -31 99 -29 162 10 267 43 115 27 121 -28
10z"/>
<path d="M692 1688 c47 -47 50 -89 13 -144 -30 -44 -62 -143 -70 -216 l-6 -53
29 82 c41 117 78 184 133 247 27 30 49 59 49 65 0 6 -13 11 -30 11 -16 0 -58
10 -93 23 l-63 23 38 -38z"/>
<path d="M3000 1450 c82 -115 297 -158 454 -90 44 19 136 94 136 111 0 5 -138
9 -306 9 l-305 0 21 -30z"/>
<path d="M2037 1420 c75 -69 143 -94 263 -94 84 -1 102 3 155 27 68 32 120 69
135 97 11 20 6 20 -297 20 l-308 -1 52 -49z"/>
<path d="M298 1313 l5 -112 -46 -78 c-53 -90 -92 -188 -102 -254 -7 -47 16
-164 35 -183 6 -6 6 4 0 25 -15 51 -12 151 5 200 9 24 41 87 73 139 l57 95 -1
95 c0 56 -7 114 -16 140 -15 44 -15 43 -10 -67z"/>
<path d="M260 721 c-12 -39 -20 -76 -17 -83 2 -7 8 5 12 27 4 22 14 58 22 79
7 22 11 41 9 44 -3 2 -14 -28 -26 -67z"/>
<path d="M1085 763 c55 -140 86 -314 92 -518 2 -99 7 -187 10 -195 21 -51 18
324 -3 410 -4 20 -3 22 5 10 12 -17 56 -149 67 -200 4 -19 9 -29 11 -23 13 36
-86 352 -148 476 -27 53 -50 80 -34 40z"/>
</g>
</svg>
